HIERARCHY
ROOT Hips
{
  OFFSET -359.316 73.0165 806.501
  CHANNELS 6 Xposition Yposition Zposition Zrotation Xrotation Yrotation
  JOINT Spine
  {
    OFFSET 0 8 0
    CHANNELS 6 Xposition Yposition Zposition Zrotation Xrotation Yrotation
    JOINT Spine1
    {
      OFFSET 6.03569e-05 7.9998 0.0561398
      CHANNELS 6 Xposition Yposition Zposition Zrotation Xrotation Yrotation
      JOINT Spine2
      {
        OFFSET -3.25781e-05 8 1.39848e-05
        CHANNELS 6 Xposition Yposition Zposition Zrotation Xrotation Yrotation
        JOINT Spine3
        {
          OFFSET 0 8 0
          CHANNELS 6 Xposition Yposition Zposition Zrotation Xrotation Yrotation
          JOINT Neck
          {
            OFFSET 6.8421e-05 17 0.000220844
            CHANNELS 6 Xposition Yposition Zposition Zrotation Xrotation Yrotation
            JOINT Head
            {
              OFFSET -3.37173e-05 10.8 -3.18453e-05
              CHANNELS 6 Xposition Yposition Zposition Zrotation Xrotation Yrotation
              End Site
              {
                OFFSET 0 20.25 0
              }
            }
          }
          JOINT LeftShoulder
          {
            OFFSET 5.0001 17 0.000220041
            CHANNELS 6 Xposition Yposition Zposition Zrotation Xrotation Yrotation
            JOINT LeftShoulder2
            {
              OFFSET 6.45 0 0
              CHANNELS 6 Xposition Yposition Zposition Zrotation Xrotation Yrotation
              JOINT LeftArm
              {
                OFFSET 6.44996 1.55328e-05 0.000139649
                CHANNELS 6 Xposition Yposition Zposition Zrotation Xrotation Yrotation
                JOINT LeftForeArm
                {
                  OFFSET -5.45856e-05 -32.4 -2.0875
                  CHANNELS 6 Xposition Yposition Zposition Zrotation Xrotation Yrotation
                  JOINT LeftHand
                  {
                    OFFSET 8.64811e-05 -25.6539 2.00005
                    CHANNELS 6 Xposition Yposition Zposition Zrotation Xrotation Yrotation
                    JOINT LeftHandThumb1
                    {
                      OFFSET -0.499986 -1.49994 2.64992
                      CHANNELS 6 Xposition Yposition Zposition Zrotation Xrotation Yrotation
                      JOINT LeftHandThumb2
                      {
                        OFFSET -4.87216e-05 -3.79995 3.69998
                        CHANNELS 6 Xposition Yposition Zposition Zrotation Xrotation Yrotation
                        JOINT LeftHandThumb3
                        {
                          OFFSET -8.98812e-05 -2.99995 2.70004
                          CHANNELS 6 Xposition Yposition Zposition Zrotation Xrotation Yrotation
                          End Site
                          {
                            OFFSET 3.21522e-05 -2.30003 1.8
                          }
                        }
                      }
                    }
                    JOINT LeftHandIndex
                    {
                      OFFSET -2.57404e-05 -1.90001 1.60003
                      CHANNELS 6 Xposition Yposition Zposition Zrotation Xrotation Yrotation
                      JOINT LeftHandIndex1
                      {
                        OFFSET 0 -8.30001 1.89997
                        CHANNELS 6 Xposition Yposition Zposition Zrotation Xrotation Yrotation
                        JOINT LeftHandIndex2
                        {
                          OFFSET 0.0314894 -4.49998 -6.85255e-05
                          CHANNELS 6 Xposition Yposition Zposition Zrotation Xrotation Yrotation
                          JOINT LeftHandIndex3
                          {
                            OFFSET 3.86145e-05 -3.40002 -1.1067e-05
                            CHANNELS 6 Xposition Yposition Zposition Zrotation Xrotation Yrotation
                            End Site
                            {
                              OFFSET -4.99504e-05 -2.60006 3.54464e-05
                            }
                          }
                        }
                      }
                    }
                    JOINT LeftHandMiddle
                    {
                      OFFSET -0.250012 -2.19998 0.400054
                      CHANNELS 6 Xposition Yposition Zposition Zrotation Xrotation Yrotation
                      JOINT LeftHandMiddle1
                      {
                        OFFSET -3.81086e-05 -8.30003 1.02258
                        CHANNELS 6 Xposition Yposition Zposition Zrotation Xrotation Yrotation
                        JOINT LeftHandMiddle2
                        {
                          OFFSET 1.56271e-05 -4.65003 -0.00167226
                          CHANNELS 6 Xposition Yposition Zposition Zrotation Xrotation Yrotation
                          JOINT LeftHandMiddle3
                          {
                            OFFSET -3.49787e-05 -3.29997 3.11436e-05
                            CHANNELS 6 Xposition Yposition Zposition Zrotation Xrotation Yrotation
                            End Site
                            {
                              OFFSET 0 -2.69996 0
                            }
                          }
                        }
                      }
                    }
                    JOINT LeftHandRing
                    {
                      OFFSET -0.500043 -2.09865 -0.800027
                      CHANNELS 6 Xposition Yposition Zposition Zrotation Xrotation Yrotation
                      JOINT LeftHandRing1
                      {
                        OFFSET 3.82959e-05 -7.75098 -0.199987
                        CHANNELS 6 Xposition Yposition Zposition Zrotation Xrotation Yrotation
                        JOINT LeftHandRing2
                        {
                          OFFSET -0.0453206 -3.79495 7.63396e-05
                          CHANNELS 6 Xposition Yposition Zposition Zrotation Xrotation Yrotation
                          JOINT LeftHandRing3
                          {
                            OFFSET 0.00444664 -3.39993 5.04938e-05
                            CHANNELS 6 Xposition Yposition Zposition Zrotation Xrotation Yrotation
                            End Site
                            {
                              OFFSET 4.07546e-05 -2.60003 -4.50562e-05
                            }
                          }
                        }
                      }
                    }
                    JOINT LeftHandPinky
                    {
                      OFFSET -0.749977 -1.74995 -1.84997
                      CHANNELS 6 Xposition Yposition Zposition Zrotation Xrotation Yrotation
                      JOINT LeftHandPinky1
                      {
                        OFFSET 3.94517e-05 -7.15008 -1.00005
                        CHANNELS 6 Xposition Yposition Zposition Zrotation Xrotation Yrotation
                        JOINT LeftHandPinky2
                        {
                          OFFSET 0.0565656 -2.99994 -5.32565e-05
                          CHANNELS 6 Xposition Yposition Zposition Zrotation Xrotation Yrotation
                          JOINT LeftHandPinky3
                          {
                            OFFSET -4.95246e-05 -2.35008 5.63519e-05
                            CHANNELS 6 Xposition Yposition Zposition Zrotation Xrotation Yrotation
                            End Site
                            {
                              OFFSET 2.10379e-05 -2.10003 -1.37954e-05
                            }
                          }
                        }
                      }
                    }
                  }
                }
              }
            }
          }
          JOINT RightShoulder
          {
            OFFSET -4.99994 17 0.00023136
            CHANNELS 6 Xposition Yposition Zposition Zrotation Xrotation Yrotation
            JOINT RightShoulder2
            {
              OFFSET -6.45 0 0
              CHANNELS 6 Xposition Yposition Zposition Zrotation Xrotation Yrotation
              JOINT RightArm
              {
                OFFSET -6.44999 -1.83797e-05 0
                CHANNELS 6 Xposition Yposition Zposition Zrotation Xrotation Yrotation
                JOINT RightForeArm
                {
                  OFFSET 0 -32.4 -2.00004
                  CHANNELS 6 Xposition Yposition Zposition Zrotation Xrotation Yrotation
                  JOINT RightHand
                  {
                    OFFSET 0.0728195 -25.6499 2.00008
                    CHANNELS 6 Xposition Yposition Zposition Zrotation Xrotation Yrotation
                    JOINT RightHandThumb1
                    {
                      OFFSET 0.500017 -1.50005 2.65002
                      CHANNELS 6 Xposition Yposition Zposition Zrotation Xrotation Yrotation
                      JOINT RightHandThumb2
                      {
                        OFFSET 0.0537347 -3.8 3.70005
                        CHANNELS 6 Xposition Yposition Zposition Zrotation Xrotation Yrotation
                        JOINT RightHandThumb3
                        {
                          OFFSET 0.0310679 -3 2.69998
                          CHANNELS 6 Xposition Yposition Zposition Zrotation Xrotation Yrotation
                          End Site
                          {
                            OFFSET -7.21666e-05 -2.3 1.80002
                          }
                        }
                      }
                    }
                    JOINT RightHandIndex
                    {
                      OFFSET -0.000594948 -1.92886 1.60075
                      CHANNELS 6 Xposition Yposition Zposition Zrotation Xrotation Yrotation
                      JOINT RightHandIndex1
                      {
                        OFFSET 4.48889e-05 -8.30001 1.90002
                        CHANNELS 6 Xposition Yposition Zposition Zrotation Xrotation Yrotation
                        JOINT RightHandIndex2
                        {
                          OFFSET -1.79649e-05 -4.5 0.0418691
                          CHANNELS 6 Xposition Yposition Zposition Zrotation Xrotation Yrotation
                          JOINT RightHandIndex3
                          {
                            OFFSET -3.55847e-05 -3.4 -6.06014e-05
                            CHANNELS 6 Xposition Yposition Zposition Zrotation Xrotation Yrotation
                            End Site
                            {
                              OFFSET -5.67164e-05 -2.6 8.48598e-05
                            }
                          }
                        }
                      }
                    }
                    JOINT RightHandMiddle
                    {
                      OFFSET 0.250085 -2.20003 0.399984
                      CHANNELS 6 Xposition Yposition Zposition Zrotation Xrotation Yrotation
                      JOINT RightHandMiddle1
                      {
                        OFFSET -1.77707e-05 -8.30003 1.00424
                        CHANNELS 6 Xposition Yposition Zposition Zrotation Xrotation Yrotation
                        JOINT RightHandMiddle2
                        {
                          OFFSET 4.12877e-05 -4.64992 -4.75815e-05
                          CHANNELS 6 Xposition Yposition Zposition Zrotation Xrotation Yrotation
                          JOINT RightHandMiddle3
                          {
                            OFFSET -7.39062e-05 -3.23159 2.16952e-05
                            CHANNELS 6 Xposition Yposition Zposition Zrotation Xrotation Yrotation
                            End Site
                            {
                              OFFSET -2.24833e-05 -2.69995 -4.8726e-05
                            }
                          }
                        }
                      }
                    }
                    JOINT RightHandRing
                    {
                      OFFSET 0.499954 -2.14997 -0.800024
                      CHANNELS 6 Xposition Yposition Zposition Zrotation Xrotation Yrotation
                      JOINT RightHandRing1
                      {
                        OFFSET -4.45164e-05 -7.74993 -0.199931
                        CHANNELS 6 Xposition Yposition Zposition Zrotation Xrotation Yrotation
                        JOINT RightHandRing2
                        {
                          OFFSET 3.09063e-05 -3.82361 0
                          CHANNELS 6 Xposition Yposition Zposition Zrotation Xrotation Yrotation
                          JOINT RightHandRing3
                          {
                            OFFSET -5.17674e-05 -3.40004 -3.51468e-05
                            CHANNELS 6 Xposition Yposition Zposition Zrotation Xrotation Yrotation
                            End Site
                            {
                              OFFSET 6.78826e-05 -2.60004 7.00589e-05
                            }
                          }
                        }
                      }
                    }
                    JOINT RightHandPinky
                    {
                      OFFSET 0.749976 -1.74996 -1.83378
                      CHANNELS 6 Xposition Yposition Zposition Zrotation Xrotation Yrotation
                      JOINT RightHandPinky1
                      {
                        OFFSET 5.5288e-05 -7.15006 -0.999994
                        CHANNELS 6 Xposition Yposition Zposition Zrotation Xrotation Yrotation
                        JOINT RightHandPinky2
                        {
                          OFFSET 1.59833e-05 -3.00005 5.66575e-05
                          CHANNELS 6 Xposition Yposition Zposition Zrotation Xrotation Yrotation
                          JOINT RightHandPinky3
                          {
                            OFFSET -3.40869e-05 -2.34999 -3.83379e-05
                            CHANNELS 6 Xposition Yposition Zposition Zrotation Xrotation Yrotation
                            End Site
                            {
                              OFFSET 7.67168e-05 -2.1063 0.0167775
                            }
                          }
                        }
                      }
                    }
                  }
                }
              }
            }
          }
        }
      }
    }
  }
  JOINT LeftUpLeg
  {
    OFFSET 8.00001 0 0
    CHANNELS 6 Xposition Yposition Zposition Zrotation Xrotation Yrotation
    JOINT LeftLeg
    {
      OFFSET -1.1821e-05 -45 -1.00001
      CHANNELS 6 Xposition Yposition Zposition Zrotation Xrotation Yrotation
      JOINT LeftFoot
      {
        OFFSET -6.63685e-05 -41 -2.00005
        CHANNELS 6 Xposition Yposition Zposition Zrotation Xrotation Yrotation
        JOINT LeftToeBase
        {
          OFFSET -3.21293e-05 -7.5 12.5
          CHANNELS 6 Xposition Yposition Zposition Zrotation Xrotation Yrotation
          JOINT LeftFootToe
          {
            OFFSET 0 0 4
            CHANNELS 6 Xposition Yposition Zposition Zrotation Xrotation Yrotation
            End Site
            {
              OFFSET 0 0 0
            }
          }
        }
      }
    }
  }
  JOINT RightUpLeg
  {
    OFFSET -8.00001 0 0
    CHANNELS 6 Xposition Yposition Zposition Zrotation Xrotation Yrotation
    JOINT RightLeg
    {
      OFFSET 0 -45 -1.00006
      CHANNELS 6 Xposition Yposition Zposition Zrotation Xrotation Yrotation
      JOINT RightFoot
      {
        OFFSET -9.14722e-05 -41 -1.99987
        CHANNELS 6 Xposition Yposition Zposition Zrotation Xrotation Yrotation
        JOINT RightToeBase
        {
          OFFSET 3.61872e-05 -7.50001 12.4999
          CHANNELS 6 Xposition Yposition Zposition Zrotation Xrotation Yrotation
          JOINT RightFootToe
          {
            OFFSET 0 0 4
            CHANNELS 6 Xposition Yposition Zposition Zrotation Xrotation Yrotation
            End Site
            {
              OFFSET 0 0 0
            }
          }
        }
      }
    }
  }
}
MOTION
Frames:	3
Frame Time:	0.0111111
-361.426 73.9065 804.04 -5.81179 6.79703 -178.796 5.68434e-14 8 0 9.77701 13.7968 -12.7114 2.84217e-14 8 0 0.61041 9.71425 2.10537 -2.84217e-14 8 -1.13687e-13 0.349517 4.86355 1.06387 5.68434e-14 8 0 0.348318 4.84538 1.05993 0 17 -1.13687e-13 -4.29673 5.45743 2.52831 -5.68434e-14 10.8 1.13687e-13 -10.5449 12.4104 6.6188 5 17 0 -4.27233 -0.95693 11.1274 6.45 0 0 -1.83664 -1.38267 -3.14317 6.45 0 0 33.7186 -54.7259 -0.352621 2.84217e-14 -32.4 -2 -11.7615 -35.9266 0.195722 0 -25.65 2 18.8826 -14.9849 -34.0593 -0.5 -1.5 2.65 0.9081 -12.9439 10.4057 0 -3.8 3.7 -0.0180892 13.2067 0.014929 0 -3 2.7 0.0231867 25.6641 -0.0184748 0 -1.9 1.6 -2.74907e-06 7.59641e-06 1.34034e-05 0 -8.3 1.9 -20.8788 -29.4639 -5.0776 -5.68434e-14 -4.5 0 -0.152808 0.0172729 -2.89151e-05 -5.68434e-14 -3.4 -5.68434e-14 7.11914e-05 -0.00732368 2.54704e-05 -0.25 -2.2 0.4 -2.74907e-06 7.59641e-06 1.34034e-05 2.84217e-14 -8.3 1 -18.2974 -27.9637 -3.78607 -2.84217e-14 -4.65 0 -2.79549 -0.0295372 -0.000190834 -5.68434e-14 -3.3 1.13687e-13 -1.05148e-05 0.0183457 1.79012e-06 -0.5 -2.15 -0.8 -2.74907e-06 7.59641e-06 1.34034e-05 -2.84217e-14 -7.75 -0.2 -12.4489 -23.6222 -1.25471 2.84217e-14 -3.8 0 -2.39165 -0.040387 0.00943756 0 -3.4 2.84217e-14 -4.6903e-05 -0.0359443 0.0119501 -0.75 -1.75 -1.85 -2.74907e-06 7.59641e-06 1.34034e-05 -2.84217e-14 -7.15 -1 -16.1957 -26.7864 -1.46774 2.84217e-14 -3 -2.84217e-14 -2.35378e-05 -0.00265023 6.80865e-05 0 -2.35 -8.52651e-14 -3.36137e-06 -0.00405075 2.1537e-05 -5 17 1.13687e-13 9.44357 -2.86765 4.71883 -6.45 -5.68434e-14 0 -2.74036 0.22624 -3.22081 -6.45 -5.68434e-14 -1.13687e-13 -71.4233 -57.9966 -18.4994 0 -32.4 -2 -47.74 -50.495 -54.9237 -2.84217e-14 -25.65 2 -10.2658 -25.3757 6.44453 0.5 -1.5 2.65 -170.446 46.2131 114.511 1.13687e-13 -3.8 3.7 0.758651 -1.34212 0.183481 0 -3 2.7 0.189926 0.0279798 0.197674 -2.84217e-14 -1.9 1.6 -5.02262e-05 2.09743e-05 -3.23367e-05 0 -8.3 1.9 1.96233 2.30296 -0.0471855 0 -4.5 0 87.0263 0.00559895 -0.097568 0 -3.4 0 75.9845 -0.00703289 -0.022868 0.25 -2.2 0.4 -5.02262e-05 2.09743e-05 -3.23367e-05 0 -8.3 1 11.204 7.48772 -1.34907 0 -4.65 0 91.4962 -0.463127 -0.139388 0 -3.3 0 90.0799 0.17259 -0.348609 0.5 -2.15 -0.8 -5.02262e-05 2.09743e-05 -3.23367e-05 -2.84217e-14 -7.75 -0.2 34.6968 13.0999 -6.03301 0 -3.8 0 65.622 -0.0907476 -0.0258452 0 -3.4 -5.68434e-14 47.195 -0.0287754 -0.0157597 0.75 -1.75 -1.85 -5.02262e-05 2.09743e-05 -3.23367e-05 -5.68434e-14 -7.15 -1 45.8942 16.2317 -9.8188 0 -3 -5.68434e-14 6.71059 0.0495102 0.00269121 0 -2.35 -5.68434e-14 6.14279 0.0377388 0.00689011 8 0 0 16.2642 -50.8551 9.59419 0 -45 -1 1.32156 50.5542 -12.9106 0 -41 -2 -15.7269 4.62464 11.0841 -5.68434e-14 -7.5 12.5 4.13732e-06 1.91803e-06 -9.45803e-06 0 0 4 1.04049 -5.50579 15.264 -8 -2.84217e-14 0 -7.21644 -58.4793 -15.8846 0 -45 -1 -16.6434 71.5947 31.5417 -5.68434e-14 -41 -2 -13.2251 21.1768 10.1947 0 -7.5 12.5 -2.63231e-06 -26.4206 -3.95339e-05 0 0 4 -14.9073 24.2578 59.5336 
-361.348 73.9187 803.999 -5.84626 6.73947 -178.816 -5.68434e-14 8 -1.13687e-13 9.81736 13.8585 -12.7388 -2.84217e-14 8 0 0.588338 9.72412 2.09524 0 8 -1.13687e-13 0.338325 4.86861 1.05836 5.68434e-14 8 -1.13687e-13 0.337177 4.85003 1.05426 0 17 0 -4.3014 5.3254 2.56728 0 10.8 0 -10.5459 12.096 6.69121 5 17 0 -4.2897 -1.02014 11.1284 6.45 0 0 -1.84549 -1.39383 -3.12493 6.45 -5.68434e-14 0 34.0229 -55.2084 -0.63377 -5.68434e-14 -32.4 -2 -11.3571 -35.5488 0.763116 0 -25.65 2 18.9351 -14.8967 -33.877 -0.5 -1.5 2.65 0.699179 -12.9324 10.3644 5.68434e-14 -3.8 3.7 -0.0180265 13.037 0.0146294 0 -3 2.7 0.022989 25.4972 -0.0181459 2.84217e-14 -1.9 1.6 -2.74907e-06 7.59641e-06 1.34034e-05 0 -8.3 1.9 -21.5085 -29.6666 -5.26946 5.68434e-14 -4.5 5.68434e-14 -0.152809 0.0177256 -2.71712e-05 -5.68434e-14 -3.4 0 7.12406e-05 -0.00743736 2.53971e-05 -0.25 -2.2 0.4 -2.74907e-06 7.59641e-06 1.34034e-05 -1.42109e-14 -8.3 1 -18.795 -28.1586 -3.9209 0 -4.65 0 -2.79571 -0.0296326 -0.00019096 -2.84217e-14 -3.3 0 -1.07603e-05 0.0187588 3.80264e-06 -0.5 -2.15 -0.8 -2.74907e-06 7.59641e-06 1.34034e-05 -2.84217e-14 -7.75 -0.2 -12.6966 -23.7954 -1.3025 0 -3.8 2.84217e-14 -2.39147 -0.0399793 0.00901247 0 -3.4 -2.84217e-14 -4.63252e-05 -0.035481 0.0117158 -0.75 -1.75 -1.85 -2.74907e-06 7.59641e-06 1.34034e-05 0 -7.15 -1 -16.6023 -26.9623 -1.53401 2.84217e-14 -3 -5.68434e-14 -2.284e-05 -0.00267884 6.90813e-05 2.84217e-14 -2.35 5.68434e-14 -4.3979e-06 -0.00387832 2.11136e-05 -5 17 0 9.41994 -2.92831 4.72758 -6.45 0 0 -2.74385 0.242004 -3.23342 -6.45 0 0 -71.5075 -58.2407 -18.5297 0 -32.4 -2 -47.7571 -50.3681 -54.9666 8.52651e-14 -25.65 2 -10.3307 -25.4174 6.41663 0.5 -1.5 2.65 -170.316 46.0837 114.47 -1.13687e-13 -3.8 3.7 0.758562 -1.34195 0.183358 -1.13687e-13 -3 2.7 0.18993 0.0269332 0.19527 5.68434e-14 -1.9 1.6 -5.02262e-05 2.09743e-05 -3.23367e-05 0 -8.3 1.9 2.01417 2.3299 -0.0481131 0 -4.5 0 87.0434 0.00572338 -0.0992689 0 -3.4 0 76.0237 -0.00724415 -0.0220643 0.25 -2.2 0.4 -5.02262e-05 2.09743e-05 -3.23367e-05 -5.68434e-14 -8.3 1 11.3223 7.50064 -1.36495 5.68434e-14 -4.65 0 91.4948 -0.463197 -0.139762 -1.13687e-13 -3.3 0 90.079 0.172289 -0.348866 0.5 -2.15 -0.8 -5.02262e-05 2.09743e-05 -3.23367e-05 2.84217e-14 -7.75 -0.2 34.9072 13.0946 -6.0762 -2.84217e-14 -3.8 0 65.526 -0.0899803 -0.0260689 0 -3.4 0 47.1005 -0.0291483 -0.0157072 0.75 -1.75 -1.85 -5.02262e-05 2.09743e-05 -3.23367e-05 0 -7.15 -1 46.0801 16.1901 -9.8506 5.68434e-14 -3 0 6.87524 0.0499643 0.00308544 0 -2.35 0 6.28203 0.0379944 0.00701858 8 0 0 16.276 -50.8701 9.58685 0 -45 -1 1.31349 50.525 -12.8842 -5.68434e-14 -41 -2 -15.7714 4.59326 11.1147 -5.68434e-14 -7.5 12.5 4.13732e-06 1.91803e-06 -9.45803e-06 0 0 4 1.0693 -5.47974 15.2629 -8 0 -1.13687e-13 -7.12384 -58.5256 -15.8178 0 -45 -1 -16.6476 71.615 31.5353 5.68434e-14 -41 -2 -13.2621 21.2246 10.0956 0 -7.5 12.5 -2.68e-06 -26.4825 -3.95552e-05 0 0 4 -14.9243 24.2824 59.5772 
-361.281 73.9319 803.961 -5.87368 6.6828 -178.841 5.68434e-14 8 1.13687e-13 9.8573 13.915 -12.7647 2.84217e-14 8 1.13687e-13 0.565579 9.73399 2.08805 0 8 1.13687e-13 0.326845 4.87368 1.05439 0 8 0 0.325684 4.85452 1.05002 -5.68434e-14 17 0 -4.3024 5.19918 2.60318 0 10.8 1.13687e-13 -10.5384 11.7957 6.7566 5 17 0 -4.31265 -1.088 11.1315 6.45 0 -1.13687e-13 -1.85984 -1.40361 -3.09574 6.45 -5.68434e-14 0 34.275 -55.6972 -0.97163 2.84217e-14 -32.4 -2 -10.9365 -35.1554 1.32546 -5.68434e-14 -25.65 2 18.9871 -14.8516 -33.7241 -0.5 -1.5 2.65 0.4742 -12.9255 10.3182 -5.68434e-14 -3.8 3.7 -0.0179352 12.9338 0.0143086 -2.84217e-14 -3 2.7 0.0227697 25.3217 -0.0178128 -5.68434e-14 -1.9 1.6 -2.74907e-06 7.59641e-06 1.34034e-05 2.84217e-14 -8.3 1.9 -22.2646 -29.91 -5.50396 -2.84217e-14 -4.5 5.68434e-14 -0.15281 0.0181686 -2.53832e-05 0 -3.4 5.68434e-14 7.11498e-05 -0.00754817 2.52637e-05 -0.25 -2.2 0.4 -2.74907e-06 7.59641e-06 1.34034e-05 1.42109e-14 -8.3 1 -19.3894 -28.3932 -4.08579 -2.84217e-14 -4.65 0 -2.79592 -0.0296663 -0.000190959 2.84217e-14 -3.3 0 -1.10562e-05 0.0191532 5.80377e-06 -0.5 -2.15 -0.8 -2.74907e-06 7.59641e-06 1.34034e-05 -4.26326e-14 -7.75 -0.2 -12.9533 -23.9534 -1.35114 5.68434e-14 -3.8 -2.84217e-14 -2.39133 -0.0395213 0.0085844 0 -3.4 2.84217e-14 -4.58112e-05 -0.0349732 0.011357 -0.75 -1.75 -1.85 -2.74907e-06 7.59641e-06 1.34034e-05 -5.68434e-14 -7.15 -1 -17.0603 -27.1604 -1.61068 2.84217e-14 -3 -2.84217e-14 -2.22096e-05 -0.00269907 6.99903e-05 2.84217e-14 -2.35 -2.84217e-14 -5.41985e-06 -0.00370309 2.0678e-05 -5 17 0 9.39697 -2.98881 4.73824 -6.45 0 0 -2.74695 0.258046 -3.24893 -6.45 0 0 -71.57 -58.4658 -18.5196 -5.68434e-14 -32.4 -2 -47.7526 -50.222 -55.0116 -5.68434e-14 -25.65 2 -10.4253 -25.4603 6.36884 0.5 -1.5 2.65 -170.175 46.028 114.414 1.13687e-13 -3.8 3.7 0.758482 -1.34587 0.183223 -1.13687e-13 -3 2.7 0.189941 0.0258698 0.192847 -5.68434e-14 -1.9 1.6 -5.02262e-05 2.09743e-05 -3.23367e-05 -2.84217e-14 -8.3 1.9 2.05711 2.37059 -0.0490627 5.68434e-14 -4.5 0 87.0553 0.00584736 -0.100946 0 -3.4 0 76.0508 -0.00744906 -0.0210412 0.25 -2.2 0.4 -5.02262e-05 2.09743e-05 -3.23367e-05 -2.84217e-14 -8.3 1 11.3741 7.53134 -1.37453 8.52651e-14 -4.65 -1.13687e-13 91.4934 -0.463264 -0.14014 0 -3.3 -1.13687e-13 90.078 0.171984 -0.34912 0.5 -2.15 -0.8 -5.02262e-05 2.09743e-05 -3.23367e-05 -2.84217e-14 -7.75 -0.2 35.0448 13.0888 -6.10202 5.68434e-14 -3.8 5.68434e-14 65.3894 -0.0890331 -0.0262708 1.13687e-13 -3.4 5.68434e-14 46.9656 -0.0294809 -0.0156271 0.75 -1.75 -1.85 -5.02262e-05 2.09743e-05 -3.23367e-05 0 -7.15 -1 46.2288 16.1654 -9.88038 0 -3 5.68434e-14 6.98217 0.0504085 0.00341456 -5.68434e-14 -2.35 0 6.372 0.0381933 0.00714686 8 0 0 16.2956 -50.8921 9.59415 0 -45 -1 1.30835 50.5142 -12.8652 0 -41 -2 -15.8034 4.55171 11.1456 5.68434e-14 -7.5 12.5 4.13732e-06 1.91803e-06 -9.45803e-06 0 -3.55271e-15 4 1.0914 -5.44838 15.2617 -8 0 0 -7.03122 -58.5686 -15.747 0 -45 -1 -16.6356 71.6258 31.5113 5.68434e-14 -41 -2 -13.2997 21.2697 10.0147 0 -7.5 12.5 -2.72988e-06 -26.5471 -3.95775e-05 0 0 4 -14.9408 24.3104 59.6196 
